<svg width="85" height="25" viewBox="0 0 85 25" fill="none" xmlns="http://www.w3.org/2000/svg">
    <path
        d="M83.1887 19.9708C81.9398 19.9708 81.3443 19.0962 81.3443 17.3631V5.08583C81.3443 3.32036 81.915 2.49431 83.1887 2.49431C84.4624 2.49431 85 3.36895 85 5.08583V17.3631C84.9917 19.1124 84.421 19.9708 83.1887 19.9708ZM72.2794 25C68.9048 25 66.895 23.7771 66.895 22.3923C66.8785 21.5581 67.5319 20.8698 68.3838 20.8212H68.4996C69.4176 20.8212 70.5259 21.793 72.4365 21.793C74.3471 21.793 75.3148 20.7078 75.3148 18.7723C75.3148 18.6346 75.2734 18.4969 75.2734 18.3107C74.5373 19.4039 73.2801 20.0599 71.9485 20.0194C69.0454 20.0194 66.6386 17.4117 66.6386 13.7755C66.6386 10.1393 69.2274 7.42629 72.3455 7.42629C73.4786 7.3696 74.5704 7.85551 75.29 8.71395C75.5877 8.07417 76.208 7.62875 76.9193 7.58016C78.1682 7.58016 78.7637 8.4143 78.7637 10.1879V17.3712C78.7637 19.5173 78.6231 21.1856 77.9118 22.3356C76.7705 24.0606 74.8599 25 72.2794 25ZM72.8087 10.8115C71.4605 10.8115 70.4019 11.9614 70.4019 13.7674C70.4019 15.5734 71.4192 16.7881 72.8087 16.7881C74.1982 16.7881 75.2155 15.6058 75.2155 13.7674C75.2155 11.9209 74.1569 10.8115 72.8087 10.8115ZM58.3594 25C54.9849 25 52.9751 23.7771 52.9751 22.3923C52.9585 21.5581 53.6119 20.8698 54.4638 20.8212H54.5796C55.4977 20.8212 56.606 21.793 58.5166 21.793C60.4272 21.793 61.3949 20.7078 61.3949 18.7723C61.3949 18.6346 61.3535 18.4969 61.3535 18.3107C60.6174 19.4039 59.3602 20.0599 58.0286 20.0194C55.1503 20.0194 52.7187 17.4117 52.7187 13.7755C52.7187 10.1393 55.3075 7.42629 58.4256 7.42629C59.5587 7.3696 60.6505 7.85551 61.37 8.71395C61.6678 8.07417 62.2881 7.62875 62.9994 7.58016C64.2483 7.58016 64.8438 8.4143 64.8438 10.1879V17.3712C64.8438 19.5173 64.7032 21.1856 63.9919 22.3356C62.8919 24.0606 60.9813 25 58.3594 25ZM58.8805 10.8115C57.5324 10.8115 56.4737 11.9614 56.4737 13.7674C56.4737 15.5734 57.491 16.7881 58.8805 16.7881C60.27 16.7881 61.2873 15.6058 61.2873 13.7674C61.2956 11.9209 60.2287 10.8115 58.8805 10.8115ZM45.3989 20.1733C41.7846 20.1733 39.1958 17.4927 39.1958 13.7512C39.1958 10.0097 41.8176 7.32911 45.3989 7.32911C48.9802 7.32911 51.6021 10.0097 51.6021 13.7512C51.6021 17.4927 49.0547 20.1733 45.4403 20.1733H45.3989ZM45.3989 10.7143C44.0508 10.7143 42.9921 11.8643 42.9921 13.735C42.9921 15.6058 44.026 16.7881 45.3989 16.7881C46.7719 16.7881 47.8058 15.6058 47.8058 13.735C47.8058 11.8643 46.7471 10.7143 45.3989 10.7143ZM36.8551 11.022H36.5408V17.3712C36.5408 19.1043 35.9701 19.9789 34.7378 19.9789C33.5054 19.9789 32.9347 19.1043 32.9347 17.3712V11.022H32.7941C31.479 11.022 30.7429 10.3984 30.7429 9.45091C30.7429 8.50339 31.4956 7.9284 32.9347 7.85551V6.28441C32.9347 4.55133 33.5054 3.6767 34.7791 3.6767C36.0528 3.6767 36.5904 4.55133 36.5904 6.28441V7.85551H36.913C38.3687 7.85551 39.2206 8.4791 39.2206 9.45091C39.2206 10.4227 38.4183 11.022 36.8551 11.022Z"
        fill="currentColor" />
    <path fill-rule="evenodd" clip-rule="evenodd"
        d="M25.2097 12.3421C25.2097 19.1584 19.5663 24.6842 12.6048 24.6842C5.64338 24.6842 6.08591e-07 19.1584 0 12.3421C-6.0859e-07 5.52574 5.64338 5.95904e-07 12.6048 0C19.5663 -5.95904e-07 25.2097 5.52574 25.2097 12.3421ZM11.6867 4.89148H13.4566V13.5569H11.6867L11.6867 4.89148ZM6.40156 12.6741C6.39329 16.035 9.15577 18.748 12.5799 18.7642C15.3672 18.748 17.8237 16.9177 18.5515 14.2695C19.4448 11.0382 17.4763 7.70975 14.1762 6.83512V8.64108C15.3424 9.08649 16.2605 9.99353 16.7154 11.1273C17.5921 13.3625 16.459 15.873 14.1762 16.7315C11.8934 17.5899 9.32945 16.4804 8.45274 14.2452C7.57602 12.01 8.70914 9.49952 10.9919 8.64108V6.83512C8.28732 7.53969 6.40156 9.94493 6.40156 12.6741Z"
        fill="currentColor" />
</svg>