<svg width="98" height="33" viewBox="0 0 98 33" fill="none" xmlns="http://www.w3.org/2000/svg">
<path d="M41.9371 16.9765C41.9371 21.6177 38.3062 25.0377 33.8504 25.0377C29.3945 25.0377 25.7636 21.6177 25.7636 16.9765C25.7636 12.3025 29.3945 8.91519 33.8504 8.91519C38.3062 8.91519 41.9371 12.3025 41.9371 16.9765ZM38.3971 16.9765C38.3971 14.0762 36.2927 12.0917 33.8504 12.0917C31.408 12.0917 29.3036 14.0762 29.3036 16.9765C29.3036 19.8477 31.408 21.8612 33.8504 21.8612C36.2927 21.8612 38.3971 19.8441 38.3971 16.9765Z" fill="#B3B7BC"/>
<path d="M59.3827 16.9765C59.3827 21.6177 55.7518 25.0377 51.296 25.0377C46.8401 25.0377 43.2093 21.6177 43.2093 16.9765C43.2093 12.3062 46.8401 8.91519 51.296 8.91519C55.7518 8.91519 59.3827 12.3025 59.3827 16.9765ZM55.8427 16.9765C55.8427 14.0762 53.7383 12.0917 51.296 12.0917C48.8536 12.0917 46.7492 14.0762 46.7492 16.9765C46.7492 19.8477 48.8536 21.8612 51.296 21.8612C53.7383 21.8612 55.8427 19.8441 55.8427 16.9765Z" fill="#B3B7BC"/>
<path d="M76.1012 9.40222V23.8747C76.1012 29.828 72.5903 32.2594 68.4398 32.2594C64.5327 32.2594 62.1812 29.6463 61.2944 27.5092L64.3764 26.2262C64.9252 27.5383 66.27 29.0865 68.4361 29.0865C71.0929 29.0865 72.7394 27.4474 72.7394 24.3617V23.2023H72.6158C71.8235 24.18 70.297 25.0341 68.3707 25.0341C64.3401 25.0341 60.6475 21.5232 60.6475 17.0055C60.6475 12.4552 64.3401 8.91519 68.3707 8.91519C70.2934 8.91519 71.8198 9.7693 72.6158 10.7179H72.7394V9.40585H76.1012V9.40222ZM72.9901 17.0055C72.9901 14.167 71.0966 12.0917 68.6869 12.0917C66.2446 12.0917 64.1983 14.167 64.1983 17.0055C64.1983 19.815 66.2446 21.8612 68.6869 21.8612C71.0966 21.8612 72.9901 19.815 72.9901 17.0055Z" fill="#B3B7BC"/>
<path d="M81.644 0.91954V24.5436H78.1912V0.91954H81.644Z" fill="#B3B7BC"/>
<path d="M95.1002 19.6302L97.8478 21.462C96.961 22.774 94.824 25.0347 91.1313 25.0347C86.5519 25.0347 83.1318 21.4947 83.1318 16.9734C83.1318 12.1795 86.581 8.91211 90.7352 8.91211C94.9184 8.91211 96.9646 12.2413 97.6334 14.0404L98.0005 14.9562L87.2243 19.4194C88.0493 21.0367 89.3323 21.8618 91.1313 21.8618C92.934 21.8618 94.1843 20.9749 95.1002 19.6302ZM86.6427 16.7299L93.8463 13.7387C93.4501 12.7319 92.258 12.0305 90.8551 12.0305C89.056 12.0305 86.5519 13.6188 86.6427 16.7299Z" fill="#B3B7BC"/>
<path d="M12.6943 14.8796V11.4595H24.2192C24.3319 12.0556 24.39 12.7607 24.39 13.5239C24.39 16.0898 23.6886 19.2627 21.4279 21.5234C19.229 23.8131 16.4196 25.0343 12.6979 25.0343C5.79965 25.0343 -0.000976562 19.4154 -0.000976562 12.5171C-0.000976562 5.6189 5.79965 0 12.6979 0C16.5141 0 19.2327 1.4974 21.2753 3.44912L18.862 5.86241C17.3973 4.48858 15.4128 3.42004 12.6943 3.42004C7.65687 3.42004 3.7171 7.47976 3.7171 12.5171C3.7171 17.5545 7.65687 21.6142 12.6943 21.6142C15.9617 21.6142 17.8225 20.3022 19.0146 19.1101C19.9814 18.1433 20.6174 16.7622 20.8682 14.8759L12.6943 14.8796Z" fill="#B3B7BC"/>
</svg>
