<svg width="106" height="25" viewBox="0 0 106 25" fill="none" xmlns="http://www.w3.org/2000/svg">
    <path
        d="M0.529999 24.0001V1.73006H7.364C12.3053 1.73006 14.776 3.65672 14.776 7.51006C14.776 8.75672 14.4587 9.83339 13.824 10.7401C13.1893 11.6467 12.328 12.2134 11.24 12.4401C12.5093 12.6214 13.4953 13.1767 14.198 14.1061C14.9233 15.0127 15.2973 16.2027 15.32 17.6761C15.32 21.8921 12.566 24.0001 7.058 24.0001H0.529999ZM7.568 20.9401C9.064 20.9401 10.1293 20.6114 10.764 19.9541C11.3987 19.2967 11.716 18.4241 11.716 17.3361C11.716 16.2254 11.3647 15.4207 10.662 14.9221C9.982 14.4234 8.894 14.1741 7.398 14.1741H4.066V20.9401H7.568ZM11.308 7.78206C11.308 5.78739 10.0727 4.79006 7.602 4.79006H4.066V11.1141H7.33C9.982 11.1141 11.308 10.0034 11.308 7.78206Z"
        fill="currentColor" />
    <path
        d="M17.666 15.9421C17.666 13.1994 18.278 11.1254 19.502 9.72006C20.726 8.29206 22.426 7.57806 24.602 7.57806C26.778 7.57806 28.4553 8.22406 29.634 9.51606C30.8353 10.7854 31.4587 12.6554 31.504 15.1261L31.368 17.6421H21.44C21.644 20.0901 22.868 21.3141 25.112 21.3141C26.676 21.3141 28.3307 21.0307 30.076 20.4641L30.79 23.4221C30.0647 23.6714 29.124 23.8867 27.968 24.0681C26.812 24.2721 25.86 24.3741 25.112 24.3741C20.148 24.3741 17.666 21.5634 17.666 15.9421ZM24.738 10.7401C23.6727 10.7401 22.868 11.0574 22.324 11.6921C21.8027 12.3041 21.508 13.3354 21.44 14.7861H27.73C27.73 12.0887 26.7327 10.7401 24.738 10.7401Z"
        fill="currentColor" />
    <path
        d="M33.782 23.2521L34.53 20.1581C36.6833 20.8381 38.3947 21.1781 39.664 21.1781C40.9333 21.1781 41.7947 21.0534 42.248 20.8041C42.7013 20.5774 42.928 20.1694 42.928 19.5801C42.928 18.9907 42.724 18.5714 42.316 18.3221C41.908 18.0727 41.1373 17.8121 40.004 17.5401C37.76 16.9961 36.196 16.3954 35.312 15.7381C34.428 15.0581 33.986 13.9587 33.986 12.4401C33.986 9.19872 36.0713 7.57806 40.242 7.57806C42.0327 7.57806 44.1067 7.87272 46.464 8.46206L45.818 11.6921C43.574 11.0574 41.84 10.7401 40.616 10.7401C39.392 10.7401 38.5647 10.8534 38.134 11.0801C37.726 11.2841 37.522 11.6467 37.522 12.1681C37.522 12.6894 37.726 13.0747 38.134 13.3241C38.5647 13.5507 39.6527 13.9021 41.398 14.3781C43.1433 14.8541 44.424 15.4094 45.24 16.0441C46.056 16.6561 46.464 17.7101 46.464 19.2061C46.464 22.6287 44.356 24.3401 40.14 24.3401C38.168 24.3401 36.0487 23.9774 33.782 23.2521Z"
        fill="currentColor" />
    <path
        d="M52.584 7.85006L52.652 8.83606C54.488 7.99739 55.9273 7.57806 56.97 7.57806C58.806 7.57806 60.1547 8.12206 61.016 9.21006C61.9 10.2754 62.342 11.9527 62.342 14.2421V24.0001H58.84V14.3441C58.84 13.2561 58.6473 12.4061 58.262 11.7941C57.8767 11.1821 57.276 10.8761 56.46 10.8761C55.644 10.8761 54.386 11.2727 52.686 12.0661V24.0001H49.184V7.85006H52.584Z"
        fill="currentColor" />
    <path
        d="M64.994 24.0001V20.8721H70.06V10.9781H65.266V7.85006H73.562V20.8721H78.356V24.0001H64.994ZM71.624 5.50406C70.944 5.50406 70.4 5.30006 69.992 4.89206C69.6067 4.46139 69.414 3.90606 69.414 3.22606C69.414 2.54606 69.618 2.00206 70.026 1.59406C70.434 1.18606 70.978 0.982056 71.658 0.982056C72.3607 0.982056 72.8933 1.18606 73.256 1.59406C73.6413 1.97939 73.834 2.52339 73.834 3.22606C73.834 3.92872 73.6413 4.48406 73.256 4.89206C72.8707 5.30006 72.3267 5.50406 71.624 5.50406Z"
        fill="currentColor" />
    <path
        d="M81.178 24.0001V1.39006H84.68V14.3441L86.924 14.1061C88.1933 12.4741 89.304 10.7061 90.256 8.80206L90.732 7.85006H94.54C93.112 10.8647 91.5253 13.3807 89.78 15.3981C91.2307 17.4607 92.6927 19.8974 94.166 22.7081L94.846 24.0001H90.868C89.7573 21.5974 88.488 19.2967 87.06 17.0981L84.68 17.3361V24.0001H81.178Z"
        fill="currentColor" />
    <path d="M100.15 24.0001V19.0701H105.08V24.0001H100.15Z" fill="currentColor" />
</svg>