<svg width="27" height="23" viewBox="0 0 27 23" fill="none" xmlns="http://www.w3.org/2000/svg">
    <path
        d="M0.53 23V0.72998H7.364C12.3053 0.72998 14.776 2.65665 14.776 6.50998C14.776 7.75665 14.4587 8.83331 13.824 9.73998C13.1893 10.6466 12.328 11.2133 11.24 11.44C12.5093 11.6213 13.4953 12.1766 14.198 13.106C14.9233 14.0126 15.2973 15.2026 15.32 16.676C15.32 20.892 12.566 23 7.058 23H0.53ZM7.568 19.94C9.064 19.94 10.1293 19.6113 10.764 18.954C11.3987 18.2966 11.716 17.424 11.716 16.336C11.716 15.2253 11.3647 14.4206 10.662 13.922C9.982 13.4233 8.894 13.174 7.398 13.174H4.066V19.94H7.568ZM11.308 6.78198C11.308 4.78731 10.0727 3.78998 7.602 3.78998H4.066V10.114H7.33C9.982 10.114 11.308 9.00331 11.308 6.78198Z"
        fill="#fff" />
    <path d="M21.95 23V18.07H26.88V23H21.95Z" fill="#fff" />
</svg>