<svg width="122" height="25" viewBox="0 0 122 25" fill="none" xmlns="http://www.w3.org/2000/svg">
    <path fill-rule="evenodd" clip-rule="evenodd"
        d="M18.7036 5.66475C18.7036 8.79361 16.1656 11.3301 13.0346 11.3301C9.90352 11.3301 7.36547 8.79361 7.36547 5.66475C7.36547 2.53653 9.90352 0 13.0346 0C16.1656 0 18.7036 2.53653 18.7036 5.66475ZM5.67011 12.7465C2.53916 12.7465 0.000976562 15.2823 0.000976562 18.4111C0.000976562 21.5397 2.53916 24.076 5.67011 24.076C8.80119 24.076 11.3395 21.5397 11.3395 18.4111C11.3395 15.2823 8.80119 12.7465 5.67011 12.7465ZM20.399 12.746C17.268 12.746 14.7298 15.2823 14.7298 18.4111C14.7298 21.5397 17.268 24.076 20.399 24.076C23.5299 24.076 26.0681 21.5397 26.0681 18.4111C26.0681 15.2823 23.5299 12.746 20.399 12.746Z"
        fill="currentColor" />
    <path fill-rule="evenodd" clip-rule="evenodd"
        d="M46.0147 18.3458C46.0886 19.1862 46.7613 20.256 47.9268 20.256H48.6087C48.873 20.256 49.0897 20.0394 49.0897 19.7751V4.78914H49.0867C49.0729 4.53668 48.8642 4.33447 48.6087 4.33447H46.4957C46.2402 4.33447 46.0314 4.53668 46.0172 4.78914H46.0147V6.00684C44.7201 4.41223 42.6789 3.75037 40.6321 3.75037C35.9796 3.75037 32.208 7.52202 32.208 12.1749C32.208 16.828 35.9796 20.5997 40.6321 20.5997C42.6789 20.5997 44.9096 19.806 46.0144 18.3439L46.0147 18.3458ZM40.6404 17.6512C37.6814 17.6512 35.2826 15.1996 35.2826 12.1749C35.2826 9.15064 37.6814 6.69888 40.6404 6.69888C43.5992 6.69888 45.9978 9.15064 45.9978 12.1749C45.9978 15.1996 43.5992 17.6512 40.6404 17.6512Z"
        fill="currentColor" />
    <path fill-rule="evenodd" clip-rule="evenodd"
        d="M80.4404 18.3455C80.5143 19.1859 81.187 20.2556 82.3525 20.2556H83.0344C83.2988 20.2556 83.5151 20.0391 83.5151 19.7747V4.78877H83.5125C83.4986 4.5363 83.2897 4.3341 83.0344 4.3341H80.9214C80.6659 4.3341 80.4572 4.5363 80.4429 4.78877H80.4404V6.00646C79.1457 4.41186 77.1046 3.75 75.0577 3.75C70.4052 3.75 66.6337 7.52165 66.6337 12.1745C66.6337 16.8276 70.4052 20.5994 75.0577 20.5994C77.1046 20.5994 79.3353 19.8056 80.4402 18.3435L80.4404 18.3455ZM75.0659 17.6509C72.1072 17.6509 69.7082 15.1992 69.7082 12.1745C69.7082 9.15027 72.1072 6.69851 75.0659 6.69851C78.025 6.69851 80.4234 9.15027 80.4234 12.1745C80.4234 15.1992 78.025 17.6509 75.0659 17.6509Z"
        fill="currentColor" />
    <path fill-rule="evenodd" clip-rule="evenodd"
        d="M118.924 18.3455C118.998 19.1859 119.671 20.2556 120.836 20.2556H121.518C121.783 20.2556 121.999 20.0391 121.999 19.7747V4.78877H121.996C121.983 4.5363 121.774 4.3341 121.518 4.3341H119.405C119.15 4.3341 118.941 4.5363 118.927 4.78877H118.924V6.00646C117.63 4.41186 115.589 3.75 113.542 3.75C108.889 3.75 105.118 7.52165 105.118 12.1745C105.118 16.8276 108.889 20.5994 113.542 20.5994C115.589 20.5994 117.819 19.8056 118.924 18.3435L118.924 18.3455ZM113.55 17.6509C110.591 17.6509 108.192 15.1992 108.192 12.1745C108.192 9.15027 110.591 6.69851 113.55 6.69851C116.509 6.69851 118.908 9.15027 118.908 12.1745C118.908 15.1992 116.509 17.6509 113.55 17.6509Z"
        fill="currentColor" />
    <path fill-rule="evenodd" clip-rule="evenodd"
        d="M102.444 11.1072C102.444 6.736 99.6866 3.78711 95.2892 3.78711C93.19 3.78711 91.4693 5.00097 90.8616 6.0437C90.7302 5.22837 90.2973 4.37134 88.955 4.37134H88.2708C88.0062 4.37134 87.79 4.58799 87.79 4.85235V19.8396H87.7927C87.8065 20.0916 88.0155 20.2941 88.271 20.2941H90.384C90.4164 20.2941 90.4481 20.2903 90.4788 20.2843C90.4927 20.2816 90.5058 20.2761 90.5193 20.2722C90.5351 20.2674 90.5514 20.2637 90.5664 20.2575C90.5852 20.2497 90.6022 20.2392 90.6197 20.2295C90.6283 20.2243 90.6372 20.2206 90.6456 20.2151C90.6667 20.2015 90.686 20.1851 90.7046 20.1684C90.7077 20.1653 90.7114 20.1633 90.7145 20.1604C90.7355 20.1401 90.7546 20.1177 90.7717 20.0945C90.8246 20.0218 90.8568 19.9339 90.8621 19.8396H90.8648V10.987C90.8648 8.63935 92.7681 6.736 95.1159 6.736C97.4636 6.736 99.367 8.63935 99.367 10.987L99.3689 18.3865L99.3694 18.384C99.3694 18.3905 99.3704 18.3973 99.3704 18.4043V19.8396H99.3732C99.3872 20.0916 99.5959 20.2941 99.8514 20.2941H101.965C101.997 20.2941 102.029 20.2903 102.059 20.2843C102.072 20.282 102.083 20.277 102.095 20.2735C102.113 20.2685 102.131 20.2642 102.147 20.2575C102.164 20.2504 102.18 20.2404 102.197 20.2312C102.206 20.2255 102.217 20.2215 102.227 20.2151C102.246 20.2023 102.264 20.1868 102.281 20.1714C102.286 20.1674 102.291 20.1643 102.295 20.1601C102.315 20.1408 102.333 20.1199 102.349 20.098C102.35 20.0964 102.352 20.0951 102.353 20.0934C102.405 20.0214 102.437 19.9346 102.442 19.8408C102.442 19.8402 102.443 19.8396 102.443 19.8396H102.446L102.444 11.1072Z"
        fill="currentColor" />
    <path fill-rule="evenodd" clip-rule="evenodd"
        d="M54.1366 16.1994C55.5472 17.1766 57.0868 17.6512 58.5665 17.6512C59.9761 17.6512 61.4334 16.9205 61.4334 15.6485C61.4334 13.9503 58.2579 13.6861 56.2628 13.008C54.2674 12.3299 52.5487 10.9282 52.5487 8.65813C52.5487 5.18461 55.6436 3.75 58.5322 3.75C60.3625 3.75 62.2509 4.35354 63.4752 5.21812C63.8968 5.5376 63.64 5.9044 63.64 5.9044L62.4714 7.57357C62.34 7.76158 62.1103 7.92401 61.7806 7.72052C61.4509 7.51717 60.2946 6.69864 58.5322 6.69864C56.7698 6.69864 55.7082 7.51257 55.7082 8.52141C55.7082 9.73117 57.088 10.1117 58.7041 10.524C61.5205 11.2832 64.5928 12.1957 64.5928 15.6485C64.5928 18.7089 61.7302 20.6003 58.5665 20.6003C56.169 20.6003 54.1277 19.9168 52.4158 18.6605C52.0591 18.3035 52.3083 17.9721 52.3083 17.9721L53.4711 16.3114C53.7077 16.0009 54.0061 16.1092 54.1366 16.1994Z"
        fill="currentColor" />
</svg>